<svg width="27" height="27" viewBox="0 0 27 27" fill="none" xmlns="http://www.w3.org/2000/svg">
<circle cx="13.5" cy="13.5" r="13.5" transform="matrix(-1 0 0 1 27 0)" fill="white"/>
<path d="M20.3536 13.6464C20.5488 13.8417 20.5488 14.1583 20.3536 14.3536L17.1716 17.5355C16.9763 17.7308 16.6597 17.7308 16.4645 17.5355C16.2692 17.3403 16.2692 17.0237 16.4645 16.8284L19.2929 14L16.4645 11.1716C16.2692 10.9763 16.2692 10.6597 16.4645 10.4645C16.6597 10.2692 16.9763 10.2692 17.1716 10.4645L20.3536 13.6464ZM8 13.5L20 13.5L20 14.5L8 14.5L8 13.5Z" fill="#3D3D3D"/>
</svg>
