<svg width="31" height="32" viewBox="0 0 31 32" fill="none" xmlns="http://www.w3.org/2000/svg">
<path opacity="0.938" fill-rule="evenodd" clip-rule="evenodd" d="M23.885 3.71877C25.9711 3.7099 27.9792 4.10573 29.9094 4.90627C29.9498 4.98961 29.9901 5.07294 30.0305 5.15627C30.0709 7.38546 30.0709 9.61459 30.0305 11.8438C29.9411 12.4351 29.6484 12.883 29.1526 13.1875C26.3522 14.408 23.5468 15.6164 20.7366 16.8125C20.6764 18.0473 20.6563 19.287 20.676 20.5313C21.9071 20.5313 23.1383 20.5313 24.3694 20.5313C24.3593 19.5311 24.3694 18.5311 24.3996 17.5313C24.551 16.875 24.9446 16.4688 25.5803 16.3125C26.7742 16.2531 27.9649 16.274 29.1526 16.375C29.6911 16.5975 30.0039 17.0037 30.091 17.5938C30.1314 20.698 30.1314 23.8021 30.091 26.9063C29.9976 27.5235 29.6646 27.9298 29.092 28.125C27.8609 28.1667 26.6298 28.1667 25.3987 28.125C24.8253 27.929 24.4923 27.5228 24.3996 26.9063C24.3694 25.9065 24.3593 24.9065 24.3694 23.9063C22.4317 23.9167 20.4942 23.9063 18.5569 23.875C17.8808 23.6565 17.4872 23.1877 17.3762 22.4688C17.3661 21.0725 17.3358 19.6766 17.2854 18.2813C15.9558 18.8603 14.6238 19.4332 13.2893 20C12.8042 20.0617 12.5722 19.843 12.593 19.3438C12.6399 19.1913 12.7307 19.0767 12.8655 19C18.1581 16.7414 23.4459 14.4706 28.7287 12.1875C29.0166 11.8273 29.0974 11.421 28.9709 10.9688C23.7034 13.2917 18.4358 15.6146 13.1682 17.9375C12.7327 18.16 12.3089 18.1391 11.8967 17.875C11.7799 17.7339 11.689 17.5776 11.6243 17.4063C11.6138 16.0371 11.5836 14.6726 11.5334 13.3125C8.30755 12.1776 5.08847 12.188 1.8762 13.3438C1.84392 14.5525 1.85401 15.7608 1.90648 16.9688C2.17537 16.8798 2.44783 16.7965 2.72386 16.7188C3.2877 16.9298 3.37852 17.2736 2.99632 17.75C2.69359 17.8542 2.39085 17.9583 2.08812 18.0625C1.59285 18.1631 1.19929 18.0069 0.907455 17.5938C0.80883 16.0135 0.788644 14.4302 0.846908 12.8438C0.867851 12.697 0.938485 12.5825 1.05882 12.5C6.97225 9.89584 12.8856 7.29171 18.7991 4.68752C20.4536 4.08706 22.1489 3.76414 23.885 3.71877ZM22.9768 4.84377C24.6806 4.74512 26.3557 4.92221 28.0022 5.37502C22.7548 7.68752 17.5074 10 12.26 12.3125C12.1591 12.3542 12.0582 12.3542 11.9573 12.3125C10.1106 11.6801 8.21346 11.3676 6.26585 11.375C10.5848 9.47921 14.9039 7.58334 19.2229 5.68752C20.4511 5.25702 21.7024 4.97577 22.9768 4.84377ZM28.9709 6.09377C29.0513 7.31277 29.0513 8.54196 28.9709 9.78127C23.5283 12.1713 18.0891 14.5671 12.6535 16.9688C12.6233 15.7398 12.6132 14.5106 12.6233 13.2813C18.09 10.9178 23.5392 8.52196 28.9709 6.09377ZM19.5862 17.2813C19.6365 18.604 19.6668 19.9373 19.677 21.2813C19.7245 21.3929 19.7951 21.4867 19.8889 21.5625C22.008 21.5833 24.1272 21.6042 26.2463 21.625C26.7022 21.8058 26.8333 22.1288 26.6399 22.5938C26.5664 22.6906 26.4756 22.7635 26.3674 22.8125C23.7992 22.8743 21.236 22.8535 18.678 22.75C18.5104 22.6399 18.4195 22.4837 18.4055 22.2813C18.3752 20.7814 18.3651 19.2814 18.3752 17.7813C18.796 17.647 19.1996 17.4804 19.5862 17.2813ZM25.7619 17.3438C26.7511 17.3333 27.74 17.3438 28.7287 17.375C28.8494 17.4109 28.9402 17.4838 29.0012 17.5938C29.1012 20.6318 29.1215 23.6735 29.0618 26.7188C29.0408 26.8655 28.9701 26.9801 28.8498 27.0625C27.7802 27.1042 26.7105 27.1042 25.6409 27.0625C25.5471 26.9867 25.4765 26.8929 25.4289 26.7813C25.3987 25.8232 25.3886 24.8648 25.3987 23.9063C25.8028 23.9166 26.2065 23.9063 26.6096 23.875C27.6179 23.4494 27.9711 22.689 27.6692 21.5938C27.4274 20.9898 26.9934 20.646 26.3674 20.5625C26.0451 20.5313 25.7222 20.5209 25.3987 20.5313C25.3886 19.5935 25.3987 18.656 25.4289 17.7188C25.473 17.5193 25.584 17.3943 25.7619 17.3438Z" fill="#3D3D3D"/>
<path opacity="0.927" fill-rule="evenodd" clip-rule="evenodd" d="M5.11618 13.0938C5.46013 13.1054 5.66195 13.2825 5.72165 13.625C5.46768 14.1394 5.23558 14.6707 5.02536 15.2188C4.69395 16.5209 4.91595 17.7084 5.69137 18.7812C7.08056 20.2666 8.60434 20.4436 10.2627 19.3125C10.4869 19.1021 10.6887 18.8729 10.8681 18.625C11.5605 18.3821 11.8329 18.6216 11.6855 19.3438C10.3259 21.0128 8.64067 21.5024 6.62985 20.8125C4.44039 19.657 3.54228 17.8133 3.93551 15.2812C4.06896 14.5967 4.33133 13.9717 4.72262 13.4062C4.8319 13.2609 4.96309 13.1568 5.11618 13.0938Z" fill="#3D3D3D"/>
<path opacity="0.931" fill-rule="evenodd" clip-rule="evenodd" d="M7.90039 13.9688C9.45033 13.9566 10.298 14.7483 10.4434 16.3438C10.2326 18.0519 9.30417 18.8123 7.6582 18.625C6.62043 18.2436 6.07551 17.4832 6.02344 16.3438C6.12637 15.0933 6.752 14.3016 7.90039 13.9688ZM8.02148 15.0313C7.69175 15.1313 7.43945 15.3396 7.26465 15.6563C7.01108 16.2569 7.08174 16.809 7.47656 17.3125C8.3023 17.8456 8.91788 17.6476 9.32324 16.7188C9.46395 15.6735 9.03001 15.111 8.02148 15.0313Z" fill="#3D3D3D"/>
</svg>
