<svg width="9" height="6" viewBox="0 0 9 6" fill="none" xmlns="http://www.w3.org/2000/svg">
<path d="M8.20046 0.860783C6.72039 2.36078 5.25309 3.87383 3.77302 5.38687C3.59439 5.56948 3.41577 5.75209 3.23714 5.9347C3.14782 6.026 3.09679 6.026 3.00747 5.9347C2.10157 4.99556 1.18291 4.05643 0.264251 3.1173C0.174937 3.026 0.174937 2.97383 0.264251 2.88252C0.468398 2.67383 0.672545 2.46513 0.876691 2.25643C0.966006 2.16513 1.01704 2.16513 1.10636 2.25643C1.75707 2.92165 2.40779 3.58687 3.05851 4.25209C3.08403 4.27817 3.09679 4.30426 3.10955 4.33035C3.13506 4.30426 3.16058 4.27817 3.1861 4.26513C4.55133 2.86948 5.9038 1.48687 7.26904 0.0912173C7.38387 -0.026174 7.42215 -0.026174 7.53698 0.0912173C7.72837 0.286869 7.91975 0.482522 8.11114 0.678174C8.13666 0.704261 8.17494 0.743391 8.20046 0.782522C8.20046 0.808609 8.20046 0.834696 8.20046 0.860783Z" fill="white"/>
</svg>
