<svg width="23" height="23" viewBox="0 0 23 23" fill="none" xmlns="http://www.w3.org/2000/svg">
<g clip-path="url(#clip0_266_327)">
<path opacity="0.948" fill-rule="evenodd" clip-rule="evenodd" d="M0.15625 -0.0224609C7.70312 -0.0224609 15.25 -0.0224609 22.7969 -0.0224609C22.8718 0.0224609 22.9316 0.0823566 22.9766 0.157227C22.9766 5.39813 22.9766 10.639 22.9766 15.8799C22.8724 16.6348 22.528 17.2562 21.9434 17.7441C21.784 17.8313 21.6193 17.9062 21.4492 17.9688C18.2609 18.035 15.0714 18.0574 11.8809 18.0361C11.8884 19.6085 11.8809 21.1808 11.8584 22.7529C11.8124 22.8512 11.745 22.9261 11.6562 22.9775C7.82293 22.9775 3.98958 22.9775 0.15625 22.9775C0.0813801 22.9326 0.0214844 22.8727 -0.0234375 22.7979C-0.0234375 15.251 -0.0234375 7.7041 -0.0234375 0.157227C0.0214844 0.0823566 0.0813801 0.0224609 0.15625 -0.0224609ZM0.785156 0.786133C4.21419 0.786133 7.64324 0.786133 11.0723 0.786133C11.0723 4.7243 11.0723 8.66242 11.0723 12.6006C9.31753 12.3204 8.30679 13.0542 8.04004 14.8018C7.92742 15.6913 8.10711 16.5149 8.5791 17.2725C8.82725 17.6096 9.14921 17.8418 9.54492 17.9688C10.0523 18.0268 10.5614 18.0493 11.0723 18.0361C11.0723 19.4138 11.0723 20.7913 11.0723 22.1689C7.64324 22.1689 4.21419 22.1689 0.785156 22.1689C0.785156 15.0413 0.785156 7.91375 0.785156 0.786133ZM12.2402 0.786133C12.7493 0.786133 13.2585 0.786133 13.7676 0.786133C13.7944 1.01802 13.9292 1.1378 14.1719 1.14551C14.3822 1.1223 14.5169 1.00999 14.5762 0.808594C15.0701 0.786142 15.5642 0.778653 16.0586 0.786133C16.0916 1.0135 16.2263 1.13329 16.4629 1.14551C16.6745 1.13728 16.8092 1.03247 16.8672 0.831055C17.3607 0.778685 17.8548 0.771201 18.3496 0.808594C18.4847 1.12573 18.7093 1.20809 19.0234 1.05566C19.1095 0.985083 19.1544 0.895239 19.1582 0.786133C19.6673 0.786133 20.1764 0.786133 20.6855 0.786133C20.7006 1.01812 20.8278 1.13791 21.0674 1.14551C21.3003 1.13123 21.4276 1.01144 21.4492 0.786133C21.6888 0.786133 21.9284 0.786133 22.168 0.786133C22.168 1.02571 22.168 1.2653 22.168 1.50488C21.9358 1.53268 21.816 1.66744 21.8086 1.90918C21.824 2.13428 21.9439 2.25407 22.168 2.26855C22.168 2.77767 22.168 3.28679 22.168 3.7959C21.8422 3.89347 21.7449 4.1031 21.876 4.4248C21.9438 4.53347 22.0411 4.57839 22.168 4.55957C22.168 5.06867 22.168 5.57781 22.168 6.08691C21.817 6.20497 21.7272 6.42958 21.8984 6.76074C21.9739 6.81833 22.0562 6.86325 22.1455 6.89551C22.1829 7.39032 22.1754 7.88446 22.123 8.37793C21.8071 8.52514 21.7323 8.74975 21.8984 9.05176C21.9659 9.108 22.0408 9.15292 22.123 9.18652C22.1754 9.67999 22.1829 10.1741 22.1455 10.6689C21.819 10.7981 21.7291 11.0227 21.876 11.3428C21.9539 11.4304 22.0512 11.4753 22.168 11.4775C22.1755 12.0018 22.168 12.5259 22.1455 13.0498C21.8882 12.8275 21.5962 12.6703 21.2695 12.5781C21.3519 12.5557 21.4043 12.5032 21.4268 12.4209C21.4985 11.9235 21.2964 11.7513 20.8203 11.9043C20.5826 12.1312 20.5826 12.3558 20.8203 12.5781C20.2064 12.6081 19.5925 12.6081 18.9785 12.5781C19.1482 12.4474 19.2006 12.2752 19.1357 12.0615C19.0216 11.8563 18.8494 11.7889 18.6191 11.8594C18.306 12.0638 18.276 12.3034 18.5293 12.5781C17.9153 12.6081 17.3014 12.6081 16.6875 12.5781C16.9088 12.3715 16.9238 12.1469 16.7324 11.9043C16.2656 11.7569 16.0485 11.9291 16.0811 12.4209C16.1185 12.4883 16.1709 12.5407 16.2383 12.5781C15.6243 12.6081 15.0104 12.6081 14.3965 12.5781C14.6138 12.3751 14.6288 12.158 14.4414 11.9268C14.1827 11.7765 13.9656 11.8215 13.79 12.0615C13.7601 12.1813 13.7601 12.3011 13.79 12.4209C13.8125 12.5032 13.8649 12.5557 13.9473 12.5781C13.3333 12.6081 12.7194 12.6081 12.1055 12.5781C12.3474 12.3246 12.3324 12.0851 12.0605 11.8594C12.0025 11.8374 11.9425 11.8299 11.8809 11.8369C11.8734 11.3425 11.8809 10.8484 11.9033 10.3545C12.1391 10.31 12.2663 10.1677 12.2852 9.92773C12.2578 9.68318 12.123 9.55592 11.8809 9.5459C11.8809 9.0368 11.8809 8.52765 11.8809 8.01855C12.123 8.00854 12.2578 7.88127 12.2852 7.63672C12.2663 7.39675 12.1391 7.25448 11.9033 7.20996C11.8809 6.71604 11.8734 6.2219 11.8809 5.72754C12.1083 5.70234 12.2431 5.57503 12.2852 5.3457C12.2649 5.11746 12.1452 4.97519 11.9258 4.91895C11.8809 4.42571 11.8659 3.93157 11.8809 3.43652C12.2305 3.35757 12.3428 3.14793 12.2178 2.80762C12.1332 2.69422 12.0209 2.63432 11.8809 2.62793C11.8659 2.13288 11.8809 1.63874 11.9258 1.14551C12.127 1.10903 12.2318 0.989238 12.2402 0.786133ZM9.85938 13.4092C13.1237 13.4017 16.3881 13.4092 19.6523 13.4316C18.9353 14.6833 18.9353 15.9336 19.6523 17.1826C18.0352 17.1976 16.418 17.2126 14.8008 17.2275C13.107 17.2343 11.415 17.2119 9.72461 17.1602C9.27458 16.8889 8.99755 16.4921 8.89355 15.9697C8.69302 15.0845 8.88021 14.2984 9.45508 13.6113C9.58194 13.5179 9.7167 13.4506 9.85938 13.4092ZM20.9551 13.4092C21.3487 13.4226 21.6407 13.6023 21.8311 13.9482C22.2934 14.8854 22.2784 15.8138 21.7861 16.7334C21.2733 17.3419 20.7791 17.327 20.3037 16.6885C19.8362 15.8349 19.8062 14.9664 20.2139 14.083C20.3856 13.7687 20.6326 13.5441 20.9551 13.4092Z" fill="black"/>
<path opacity="0.875" fill-rule="evenodd" clip-rule="evenodd" d="M12.9598 1.45996C13.3197 1.49768 13.4619 1.69234 13.3866 2.04395C13.3513 2.12418 13.2989 2.19156 13.2293 2.24609C12.8018 2.35938 12.5996 2.20216 12.6229 1.77441C12.7023 1.62743 12.8146 1.52261 12.9598 1.45996Z" fill="black"/>
<path opacity="0.878" fill-rule="evenodd" clip-rule="evenodd" d="M15.251 1.45996C15.6312 1.50388 15.7735 1.71352 15.6777 2.08887C15.5291 2.26079 15.342 2.31319 15.1162 2.24609C14.8048 1.92859 14.8497 1.66655 15.251 1.45996Z" fill="black"/>
<path opacity="0.886" fill-rule="evenodd" clip-rule="evenodd" d="M17.5873 1.45996C17.9783 1.54281 18.0981 1.76742 17.9467 2.13379C17.7004 2.32517 17.4683 2.3102 17.2504 2.08887C17.1464 1.75342 17.2587 1.54379 17.5873 1.45996Z" fill="black"/>
<path opacity="0.882" fill-rule="evenodd" clip-rule="evenodd" d="M19.8782 1.45996C20.2877 1.55717 20.4 1.79676 20.2151 2.17871C19.9636 2.3222 19.739 2.29226 19.5413 2.08887C19.456 1.76501 19.5683 1.55537 19.8782 1.45996Z" fill="black"/>
<path opacity="0.868" fill-rule="evenodd" clip-rule="evenodd" d="M14.038 2.62801C14.4378 2.61568 14.6025 2.80285 14.5322 3.18954C14.4175 3.41138 14.2379 3.48625 13.9931 3.41415C13.784 3.28403 13.7166 3.09685 13.791 2.85262C13.8687 2.76719 13.951 2.69231 14.038 2.62801Z" fill="black"/>
<path opacity="0.868" fill-rule="evenodd" clip-rule="evenodd" d="M16.3287 2.62793C16.8043 2.63588 16.9541 2.86049 16.7779 3.30176C16.5162 3.49896 16.2841 3.46901 16.0816 3.21191C16.0174 2.95137 16.0998 2.75671 16.3287 2.62793Z" fill="black"/>
<path opacity="0.868" fill-rule="evenodd" clip-rule="evenodd" d="M18.6646 2.62803C19.0775 2.61522 19.2348 2.80988 19.1362 3.21202C18.966 3.45374 18.7489 3.49867 18.4849 3.34678C18.279 3.04009 18.3388 2.8005 18.6646 2.62803Z" fill="black"/>
<path opacity="0.871" fill-rule="evenodd" clip-rule="evenodd" d="M20.9563 2.62805C21.3673 2.6126 21.5245 2.80727 21.428 3.21203C21.3138 3.41726 21.1416 3.48464 20.9114 3.41418C20.6823 3.28373 20.6149 3.09655 20.7092 2.85266C20.7699 2.75163 20.8523 2.67676 20.9563 2.62805Z" fill="black"/>
<path opacity="0.878" fill-rule="evenodd" clip-rule="evenodd" d="M12.8254 3.79585C13.2818 3.73557 13.4689 3.93023 13.3869 4.37983C13.1583 4.64523 12.9187 4.66019 12.6682 4.42475C12.5684 4.17728 12.6209 3.96765 12.8254 3.79585Z" fill="black"/>
<path opacity="0.879" fill-rule="evenodd" clip-rule="evenodd" d="M15.1602 3.7959C15.7146 3.79718 15.8494 4.03677 15.5645 4.51465C15.2094 4.66334 14.9848 4.55104 14.8906 4.17773C14.9215 4.00525 15.0113 3.87798 15.1602 3.7959Z" fill="black"/>
<path opacity="0.883" fill-rule="evenodd" clip-rule="evenodd" d="M17.4521 3.79584C17.9834 3.7882 18.1331 4.0203 17.9014 4.49213C17.6938 4.64266 17.4916 4.63516 17.2949 4.46966C17.1694 4.19598 17.2218 3.97137 17.4521 3.79584Z" fill="black"/>
<path opacity="0.882" fill-rule="evenodd" clip-rule="evenodd" d="M19.7426 3.79597C20.075 3.72213 20.2696 3.8494 20.3266 4.1778C20.2343 4.55066 20.0097 4.66296 19.6528 4.51472C19.4543 4.24559 19.4843 4.00601 19.7426 3.79597Z" fill="black"/>
<path opacity="0.871" fill-rule="evenodd" clip-rule="evenodd" d="M14.0827 4.91895C14.5249 4.95744 14.6597 5.18205 14.487 5.59277C14.3467 5.72107 14.1819 5.75849 13.9928 5.70508C13.7876 5.59093 13.7202 5.4187 13.7907 5.18848C13.8552 5.05632 13.9526 4.96647 14.0827 4.91895Z" fill="black"/>
<path opacity="0.865" fill-rule="evenodd" clip-rule="evenodd" d="M16.3737 4.91895C16.7327 4.92586 16.8899 5.10555 16.8454 5.45801C16.7396 5.70935 16.5524 5.79169 16.2839 5.70508C16.0786 5.59093 16.0112 5.4187 16.0817 5.18848C16.1488 5.06207 16.2461 4.97222 16.3737 4.91895Z" fill="black"/>
<path opacity="0.865" fill-rule="evenodd" clip-rule="evenodd" d="M18.6643 4.91895C19.0568 4.92568 19.214 5.12038 19.1359 5.50293C19.0058 5.71204 18.8187 5.77942 18.5744 5.70508C18.3293 5.52719 18.2918 5.31008 18.4621 5.05371C18.5363 5.01333 18.6037 4.9684 18.6643 4.91895Z" fill="black"/>
<path opacity="0.882" fill-rule="evenodd" clip-rule="evenodd" d="M21.0003 4.91895C21.3829 4.93489 21.5251 5.12954 21.4271 5.50293C21.2969 5.71204 21.1098 5.77942 20.8656 5.70508C20.5551 5.38546 20.6 5.12343 21.0003 4.91895Z" fill="black"/>
<path opacity="0.871" fill-rule="evenodd" clip-rule="evenodd" d="M12.8709 6.08689C13.3047 6.04907 13.4769 6.24371 13.3875 6.67088C13.163 6.94423 12.9234 6.95923 12.6687 6.7158C12.5612 6.44703 12.6286 6.23742 12.8709 6.08689Z" fill="black"/>
<path opacity="0.874" fill-rule="evenodd" clip-rule="evenodd" d="M15.1609 6.08689C15.5947 6.04907 15.7669 6.24371 15.6775 6.67088C15.4573 6.95128 15.2177 6.96624 14.9588 6.7158C14.8684 6.45539 14.9358 6.24573 15.1609 6.08689Z" fill="black"/>
<path opacity="0.878" fill-rule="evenodd" clip-rule="evenodd" d="M17.4521 6.08688C17.7725 6.02579 17.9671 6.15309 18.0361 6.46872C17.921 6.89152 17.674 6.98887 17.2949 6.76071C17.1694 6.48704 17.2218 6.26243 17.4521 6.08688Z" fill="black"/>
<path opacity="0.868" fill-rule="evenodd" clip-rule="evenodd" d="M19.7432 6.08691C20.2207 6.04769 20.3929 6.25734 20.2598 6.71582C20.051 6.9362 19.8264 6.95121 19.586 6.76074C19.4604 6.48905 19.5128 6.26444 19.7432 6.08691Z" fill="black"/>
<path opacity="0.882" fill-rule="evenodd" clip-rule="evenodd" d="M14.1282 7.20996C14.5377 7.30717 14.65 7.54674 14.4651 7.92871C14.2136 8.07219 13.989 8.04227 13.7913 7.83887C13.706 7.51503 13.8183 7.30537 14.1282 7.20996Z" fill="black"/>
<path opacity="0.875" fill-rule="evenodd" clip-rule="evenodd" d="M16.4195 7.20996C16.8252 7.27245 16.9525 7.49706 16.8013 7.88379C16.6514 8.01038 16.4792 8.0478 16.2847 7.99609C16.0324 7.82247 15.9949 7.60536 16.1724 7.34473C16.2567 7.29491 16.339 7.24999 16.4195 7.20996Z" fill="black"/>
<path opacity="0.875" fill-rule="evenodd" clip-rule="evenodd" d="M18.7098 7.20996C19.0697 7.2477 19.2119 7.44234 19.1366 7.79395C19.1013 7.87418 19.0489 7.94156 18.9793 7.99609C18.5518 8.10939 18.3496 7.95216 18.3729 7.52441C18.4523 7.37743 18.5646 7.27263 18.7098 7.20996Z" fill="black"/>
<path opacity="0.878" fill-rule="evenodd" clip-rule="evenodd" d="M21.001 7.20996C21.3812 7.25389 21.5235 7.4635 21.4277 7.83887C21.2791 8.01078 21.092 8.06321 20.8662 7.99609C20.5548 7.67859 20.5997 7.41656 21.001 7.20996Z" fill="black"/>
<path opacity="0.867" fill-rule="evenodd" clip-rule="evenodd" d="M12.9146 8.37803C13.3275 8.36523 13.4848 8.55988 13.3862 8.96202C13.216 9.20374 12.9989 9.24866 12.7349 9.09678C12.529 8.7901 12.5888 8.55049 12.9146 8.37803Z" fill="black"/>
<path opacity="0.871" fill-rule="evenodd" clip-rule="evenodd" d="M15.2063 8.37805C15.6173 8.3626 15.7745 8.55729 15.678 8.96203C15.5638 9.16728 15.3916 9.23466 15.1614 9.16418C14.9323 9.03373 14.8649 8.84654 14.9592 8.60266C15.0199 8.50163 15.1023 8.42674 15.2063 8.37805Z" fill="black"/>
<path opacity="0.872" fill-rule="evenodd" clip-rule="evenodd" d="M17.497 8.37793C17.9394 8.3782 18.0966 8.58785 17.9687 9.00684C17.8317 9.1699 17.6595 9.22233 17.4521 9.16406C17.243 9.03392 17.1756 8.84678 17.25 8.60254C17.3131 8.50173 17.3955 8.42689 17.497 8.37793Z" fill="black"/>
<path opacity="0.868" fill-rule="evenodd" clip-rule="evenodd" d="M19.788 8.37802C20.1878 8.36566 20.3525 8.55285 20.2822 8.93954C20.1675 9.16141 19.9879 9.23625 19.7431 9.16415C19.534 9.03401 19.4666 8.84686 19.541 8.60262C19.6187 8.51718 19.701 8.4423 19.788 8.37802Z" fill="black"/>
<path opacity="0.882" fill-rule="evenodd" clip-rule="evenodd" d="M13.9926 9.54597C14.325 9.47212 14.5196 9.59943 14.5766 9.92781C14.4843 10.3007 14.2597 10.413 13.9028 10.2647C13.7043 9.99559 13.7343 9.75602 13.9926 9.54597Z" fill="black"/>
<path opacity="0.875" fill-rule="evenodd" clip-rule="evenodd" d="M16.2849 9.54594C16.7179 9.47739 16.9051 9.65707 16.8464 10.085C16.6382 10.3843 16.3986 10.4142 16.1277 10.1748C16.0126 9.92175 16.065 9.7121 16.2849 9.54594Z" fill="black"/>
<path opacity="0.878" fill-rule="evenodd" clip-rule="evenodd" d="M18.5754 9.54585C19.0318 9.48556 19.2189 9.68021 19.1369 10.1298C18.9083 10.3952 18.6687 10.4102 18.4182 10.1748C18.3184 9.92728 18.3709 9.71763 18.5754 9.54585Z" fill="black"/>
<path opacity="0.879" fill-rule="evenodd" clip-rule="evenodd" d="M20.9102 9.5459C21.4646 9.5472 21.5994 9.78677 21.3145 10.2646C20.9594 10.4133 20.7348 10.301 20.6406 9.92773C20.6715 9.75523 20.7613 9.62797 20.9102 9.5459Z" fill="black"/>
<path opacity="0.865" fill-rule="evenodd" clip-rule="evenodd" d="M12.9143 10.6689C13.3068 10.6757 13.464 10.8704 13.3859 11.2529C13.2558 11.462 13.0687 11.5294 12.8244 11.4551C12.5793 11.2772 12.5418 11.0601 12.7121 10.8037C12.7863 10.7633 12.8537 10.7184 12.9143 10.6689Z" fill="black"/>
<path opacity="0.882" fill-rule="evenodd" clip-rule="evenodd" d="M15.2503 10.6689C15.6329 10.6849 15.7751 10.8795 15.6771 11.2529C15.5469 11.462 15.3598 11.5294 15.1156 11.4551C14.8051 11.1355 14.85 10.8734 15.2503 10.6689Z" fill="black"/>
<path opacity="0.879" fill-rule="evenodd" clip-rule="evenodd" d="M17.5416 10.6689C17.9419 10.7062 18.0842 10.9159 17.9684 11.2979C17.7288 11.5374 17.4892 11.5374 17.2497 11.2979C17.1484 10.9868 17.2457 10.7772 17.5416 10.6689Z" fill="black"/>
<path opacity="0.872" fill-rule="evenodd" clip-rule="evenodd" d="M19.8327 10.6689C20.2749 10.7074 20.4097 10.9321 20.237 11.3428C20.0967 11.4711 19.9319 11.5085 19.7428 11.4551C19.5376 11.3409 19.4702 11.1687 19.5407 10.9385C19.6052 10.8063 19.7026 10.7165 19.8327 10.6689Z" fill="black"/>
</g>
<defs>
<clipPath id="clip0_266_327">
<rect width="23" height="23" fill="white"/>
</clipPath>
</defs>
</svg>
