<svg width="23" height="21" viewBox="0 0 23 21" fill="none" xmlns="http://www.w3.org/2000/svg">
<path opacity="0.969" fill-rule="evenodd" clip-rule="evenodd" d="M13.3797 0.563355C16.2768 0.555216 19.174 0.563355 22.0711 0.587769C22.2216 0.626148 22.3274 0.715665 22.3884 0.856324C22.4371 7.30554 22.4208 13.7509 22.3396 20.1923C22.2625 20.2675 22.173 20.3245 22.0711 20.3632C15.0072 20.3957 7.94347 20.3957 0.879652 20.3632C0.729129 20.3248 0.623334 20.2353 0.562269 20.0946C0.513944 17.8119 0.530218 15.5332 0.611097 13.2587C0.688211 13.1834 0.777733 13.1264 0.879652 13.0878C2.84899 13.0634 4.81837 13.0552 6.78785 13.0634C6.76398 11.0409 6.78839 9.02273 6.8611 7.00867C6.9382 6.93342 7.02775 6.87644 7.12965 6.83777C9.09899 6.81336 11.0684 6.8052 13.0379 6.81336C13.0297 4.82761 13.0379 2.84193 13.0623 0.856324C13.1352 0.718946 13.241 0.62129 13.3797 0.563355ZM14.1121 1.63757C16.5209 1.63757 18.9298 1.63757 21.3386 1.63757C21.3386 7.52952 21.3386 13.4214 21.3386 19.3134C14.7631 19.3134 8.18761 19.3134 1.61207 19.3134C1.61207 17.5881 1.61207 15.8628 1.61207 14.1376C4.96495 14.1457 8.31784 14.1376 11.6707 14.1132C12.0083 13.9291 12.0978 13.6605 11.9392 13.3075C11.8639 13.2158 11.7744 13.1426 11.6707 13.0878C10.4012 13.0634 9.1317 13.0552 7.86207 13.0634C7.86207 11.3381 7.86207 9.61282 7.86207 7.88757C11.215 7.89573 14.5678 7.88757 17.9207 7.86316C18.2583 7.67908 18.3478 7.41052 18.1892 7.0575C18.1139 6.9658 18.0244 6.89255 17.9207 6.83777C16.6512 6.81336 15.3817 6.8052 14.1121 6.81336C14.1121 5.08811 14.1121 3.36282 14.1121 1.63757Z" fill="black"/>
</svg>
