<svg width="14" height="18" viewBox="0 0 14 18" fill="none" xmlns="http://www.w3.org/2000/svg">
<path d="M7 17.9998C5.73693 16.9224 4.56619 15.7413 3.5 14.4688C1.9 12.5578 8.83662e-07 9.71181 8.83662e-07 6.99981C-0.00141728 4.16735 1.70425 1.6132 4.32107 0.529203C6.93789 -0.554789 9.95007 0.0450466 11.952 2.04881C13.2685 3.35941 14.0059 5.14219 14 6.99981C14 9.71181 12.1 12.5578 10.5 14.4688C9.43382 15.7413 8.26307 16.9224 7 17.9998ZM7 3.99981C5.92821 3.99981 4.93782 4.5716 4.40193 5.49981C3.86603 6.42801 3.86603 7.5716 4.40193 8.49981C4.93782 9.42801 5.92821 9.99981 7 9.99981C8.65686 9.99981 10 8.65666 10 6.99981C10 5.34295 8.65686 3.99981 7 3.99981Z" fill="#E5884C"/>
</svg>
