<svg width="21" height="27" viewBox="0 0 21 27" fill="none" xmlns="http://www.w3.org/2000/svg">
<path d="M9.28272 0.791994C5.12647 1.35254 1.83154 4.51758 1.09326 8.65332C0.942871 9.50098 0.942871 11.0117 1.09326 11.8252C1.51709 14.1221 2.51514 16.3848 4.24463 19.0029C5.71436 21.2314 7.4165 23.3232 9.39893 25.3398C10.1167 26.0713 10.3628 26.2832 10.4995 26.2832C10.773 26.2832 12.6733 24.3145 14.2114 22.4414C17.4653 18.4629 19.311 15.0176 19.9058 11.8252C20.0562 11.0117 20.0493 9.50781 19.8989 8.65332C19.6665 7.32715 19.106 5.93946 18.3472 4.83203C17.8823 4.15528 16.5562 2.82227 15.9204 2.40528C14.7788 1.65332 13.6782 1.18164 12.4272 0.921877C11.648 0.757814 10.0347 0.689455 9.28272 0.791994ZM11.73 1.77637C14.5532 2.2002 16.9185 3.90918 18.1763 6.42481C19.2222 8.52344 19.3452 10.7998 18.5522 13.2881C17.6909 15.9951 15.7495 19.1602 12.8579 22.5576C12.0171 23.542 10.5747 25.0869 10.4927 25.0869C10.4175 25.0869 9.00244 23.5693 8.14111 22.5576C5.25635 19.167 3.30811 15.9951 2.44678 13.2881C1.77686 11.1826 1.76318 9.20703 2.40576 7.40235C3.08252 5.51563 4.47022 3.84082 6.19287 2.83594C7.82666 1.87891 9.86377 1.48926 11.73 1.77637Z" fill="black"/>
<path d="M9.42578 5.76861C8.14062 6.08307 7.04688 6.95807 6.47949 8.12701C6.13086 8.84479 6.02832 9.28912 6.02148 10.1163C6.02148 11.4083 6.4043 12.3448 7.32031 13.2676C7.9082 13.8624 8.36621 14.1563 9.05664 14.3887C12.8027 15.6465 16.248 11.7569 14.5459 8.20221C13.6162 6.26764 11.4971 5.26275 9.42578 5.76861ZM11.3398 6.6983C12.3379 6.95807 13.2129 7.65533 13.6572 8.55768C14.8398 10.9229 13.1104 13.671 10.458 13.6573C8.30469 13.6436 6.65039 11.668 7.0127 9.54205C7.23828 8.19537 8.28418 7.06061 9.62402 6.70514C10.1025 6.57525 10.8545 6.56842 11.3398 6.6983Z" fill="black"/>
</svg>
