<svg width="17" height="17" viewBox="0 0 17 17" fill="none" xmlns="http://www.w3.org/2000/svg">
<path fill-rule="evenodd" clip-rule="evenodd" d="M15.8499 0.292969C15.4592 -0.0976562 14.8264 -0.0976562 14.4358 0.292969L8.07154 6.65723L1.70728 0.292969C1.31666 -0.0976562 0.683842 -0.0976562 0.293218 0.292969C-0.0974075 0.683594 -0.0974075 1.31738 0.293218 1.70801L6.65748 8.07129L0.293218 14.4355C0.0920456 14.6367 -0.00561063 14.9023 0.000248747 15.166C0.00610812 15.4141 0.103764 15.6602 0.293218 15.8496C0.473882 16.0303 0.706303 16.127 0.942632 16.1406C1.21802 16.1572 1.4983 16.0596 1.70826 15.8496L8.07154 9.48633L14.4358 15.8496C14.8264 16.2402 15.4592 16.2402 15.8499 15.8496C16.2405 15.459 16.2405 14.8262 15.8499 14.4355L9.4856 8.07129L15.8499 1.70703C16.2405 1.31641 16.2405 0.683594 15.8499 0.292969Z" fill="#3C606F"/>
</svg>
