<svg width="52" height="52" viewBox="0 0 52 52" fill="none" xmlns="http://www.w3.org/2000/svg">
<circle cx="26" cy="26" r="26" fill="white"/>
<g opacity="0.996">
<path fill-rule="evenodd" clip-rule="evenodd" d="M12.7461 13.4648C18.1836 13.4531 23.6211 13.4648 29.0586 13.5C29.1875 13.5352 29.2695 13.6172 29.3047 13.7461C29.3516 16.1836 29.3516 18.6211 29.3047 21.0586C29.1972 21.2707 29.0214 21.3644 28.7773 21.3398C28.5333 21.3644 28.3575 21.2707 28.25 21.0586C28.2148 18.9025 28.2031 16.7462 28.2148 14.5898C23.3399 14.5898 18.4648 14.5898 13.5898 14.5898C13.5898 17.2148 13.5898 19.8399 13.5898 22.4648C17.6211 22.4531 21.6524 22.4648 25.6836 22.5C26.021 22.7159 26.103 23.0089 25.9297 23.3789C25.8662 23.4634 25.7842 23.522 25.6836 23.5547C21.3185 23.6244 16.9591 23.601 12.6055 23.4844C12.5615 23.4316 12.5263 23.373 12.5 23.3086C12.4531 20.1211 12.4531 16.9336 12.5 13.7461C12.5485 13.616 12.6305 13.5222 12.7461 13.4648Z" fill="#EF924F"/>
<path d="M22.2031 18.0352C22.3303 18.6528 22.2131 19.2153 21.8516 19.7227C21.2188 20.2852 20.5859 20.2852 19.9531 19.7227C19.4375 18.9258 19.4375 18.1289 19.9531 17.332M12.7461 13.4648C18.1836 13.4531 23.6211 13.4648 29.0586 13.5C29.1875 13.5352 29.2695 13.6172 29.3047 13.7461C29.3516 16.1836 29.3516 18.6211 29.3047 21.0586C29.1972 21.2707 29.0214 21.3644 28.7773 21.3398C28.5333 21.3644 28.3575 21.2707 28.25 21.0586C28.2148 18.9025 28.2031 16.7462 28.2148 14.5898C23.3399 14.5898 18.4648 14.5898 13.5898 14.5898C13.5898 17.2148 13.5898 19.8399 13.5898 22.4648C17.6211 22.4531 21.6524 22.4648 25.6836 22.5C26.021 22.7159 26.103 23.0089 25.9297 23.3789C25.8662 23.4634 25.7842 23.522 25.6836 23.5547C21.3185 23.6244 16.9591 23.601 12.6055 23.4844C12.5615 23.4316 12.5263 23.373 12.5 23.3086C12.4531 20.1211 12.4531 16.9336 12.5 13.7461C12.5485 13.616 12.6305 13.5222 12.7461 13.4648Z" stroke="#EF924F" stroke-width="0.5"/>
</g>
<path opacity="0.932" fill-rule="evenodd" clip-rule="evenodd" d="M20.3398 15.7147C21.9827 15.5692 23.0023 16.2958 23.3984 17.8944C23.6043 19.0815 23.2645 20.0776 22.3789 20.8827C20.796 21.7456 19.5421 21.4058 18.6172 19.8632C18.058 18.4498 18.3275 17.2194 19.4258 16.1718C19.718 15.9788 20.0227 15.8264 20.3398 15.7147ZM20.4804 16.9101C20.3031 17.0409 20.1273 17.1815 19.9531 17.3319C19.4375 18.1288 19.4375 18.9257 19.9531 19.7226C20.5859 20.2851 21.2187 20.2851 21.8515 19.7226C22.2131 19.2152 22.3302 18.6527 22.2031 18.0351C21.9472 17.1746 21.3729 16.7996 20.4804 16.9101Z" fill="#EF924F" stroke="#EF924F" stroke-width="0.5"/>
<path opacity="0.958" fill-rule="evenodd" clip-rule="evenodd" d="M27.3711 22.4649C31.3087 22.4531 35.2462 22.4649 39.1836 22.5C39.248 22.5263 39.3066 22.5615 39.3594 22.6055C39.4748 23.982 39.4982 25.3648 39.4297 26.7539C39.2664 27.5959 38.9149 28.3459 38.375 29.0039C37.4083 29.982 36.4825 30.9898 35.5977 32.0274C36.4825 33.0649 37.4083 34.0727 38.375 35.0508C38.9149 35.7088 39.2664 36.4588 39.4297 37.3008C39.4766 38.6367 39.4766 39.9727 39.4297 41.3086C39.4034 41.373 39.3682 41.4317 39.3242 41.4844C37.3145 41.5659 35.2989 41.601 33.2773 41.5899C31.3086 41.5781 29.3398 41.5664 27.3711 41.5547C27.3067 41.5284 27.248 41.4932 27.1953 41.4492C27.1149 40.7528 27.0798 40.0497 27.0898 39.3399C26.866 37.8443 27.1824 36.485 28.0391 35.2617C28.8359 34.418 29.6328 33.5742 30.4297 32.7305C30.6214 32.5043 30.7971 32.2699 30.957 32.0274C30.0722 30.9898 29.1464 29.982 28.1797 29.0039C27.2184 27.7489 26.8551 26.3309 27.0898 24.75C27.1016 24.082 27.1133 23.4141 27.125 22.7461C27.1735 22.616 27.2555 22.5222 27.3711 22.4649ZM28.2148 23.5899C31.5898 23.5899 34.9648 23.5899 38.3398 23.5899C38.3516 24.3636 38.3398 25.1371 38.3047 25.9102C38.2711 26.6804 38.0367 27.3835 37.6016 28.0195C36.568 29.0765 35.5602 30.1546 34.5781 31.2539C34.3438 31.7695 34.3438 32.2852 34.5781 32.8008C35.4922 33.7618 36.4062 34.7226 37.3203 35.6836C37.6515 36.0759 37.921 36.5095 38.1289 36.9844C35.3748 37.006 32.6209 37.0412 29.8672 37.0899C29.3867 37.0664 28.9062 37.043 28.4258 37.0195C28.6246 36.5274 28.8942 36.0821 29.2344 35.6836C30.1484 34.7226 31.0625 33.7618 31.9766 32.8008C32.2669 32.1437 32.1966 31.5343 31.7656 30.9727C30.8516 30.0117 29.9375 29.0508 29.0234 28.0899C28.5428 27.4449 28.2849 26.7183 28.25 25.9102C28.2148 25.1371 28.2031 24.3636 28.2148 23.5899ZM36.9336 38.2149C37.4024 38.2149 37.8711 38.2149 38.3398 38.2149C38.3398 38.9649 38.3398 39.7148 38.3398 40.4649C34.9648 40.4649 31.5898 40.4649 28.2148 40.4649C28.2148 39.7383 28.2148 39.0117 28.2148 38.2852C31.133 38.3085 34.0393 38.2851 36.9336 38.2149Z" fill="#EF924F" stroke="#EF924F" stroke-width="0.5"/>
<path opacity="0.992" fill-rule="evenodd" clip-rule="evenodd" d="M12.7461 25.8399C17.0586 25.8281 21.3712 25.8399 25.6836 25.875C25.8956 25.9825 25.9894 26.1583 25.9648 26.4024C25.9894 26.6464 25.8956 26.8222 25.6836 26.9297C21.3711 26.9766 17.0586 26.9766 12.7461 26.9297C12.534 26.8222 12.4403 26.6464 12.4648 26.4024C12.4495 26.1516 12.5433 25.9642 12.7461 25.8399Z" fill="#EF924F" stroke="#EF924F" stroke-width="0.5"/>
<path opacity="0.993" fill-rule="evenodd" clip-rule="evenodd" d="M12.7461 29.2149C17.4336 29.2031 22.1211 29.2149 26.8086 29.25C27.0206 29.3575 27.1144 29.5333 27.0898 29.7774C27.1144 30.0214 27.0206 30.1972 26.8086 30.3047C22.1211 30.3516 17.4336 30.3516 12.7461 30.3047C12.534 30.1972 12.4403 30.0214 12.4648 29.7774C12.4495 29.5266 12.5433 29.3392 12.7461 29.2149Z" fill="#EF924F" stroke="#EF924F" stroke-width="0.5"/>
</svg>
