<svg width="52" height="52" viewBox="0 0 52 52" fill="none" xmlns="http://www.w3.org/2000/svg">
<circle cx="26" cy="26" r="26" fill="white"/>
<path d="M17.608 37L32.904 14.6H35.368L20.072 37H17.608ZM19.4 26.632C18.376 26.632 17.4693 26.376 16.68 25.864C15.8907 25.352 15.272 24.6373 14.824 23.72C14.3973 22.8027 14.184 21.736 14.184 20.52C14.184 19.304 14.3973 18.2373 14.824 17.32C15.272 16.4027 15.8907 15.688 16.68 15.176C17.4693 14.664 18.376 14.408 19.4 14.408C20.4453 14.408 21.352 14.664 22.12 15.176C22.9093 15.688 23.5173 16.4027 23.944 17.32C24.3707 18.2373 24.584 19.304 24.584 20.52C24.584 21.736 24.3707 22.8027 23.944 23.72C23.5173 24.6373 22.9093 25.352 22.12 25.864C21.352 26.376 20.4453 26.632 19.4 26.632ZM19.4 24.808C20.3813 24.808 21.1493 24.4347 21.704 23.688C22.2587 22.92 22.536 21.864 22.536 20.52C22.536 19.176 22.2587 18.1307 21.704 17.384C21.1493 16.616 20.3813 16.232 19.4 16.232C18.44 16.232 17.672 16.616 17.096 17.384C16.5413 18.1307 16.264 19.176 16.264 20.52C16.264 21.8427 16.5413 22.888 17.096 23.656C17.672 24.424 18.44 24.808 19.4 24.808ZM33.576 37.192C32.552 37.192 31.6453 36.936 30.856 36.424C30.0667 35.912 29.4587 35.1973 29.032 34.28C28.6053 33.3627 28.392 32.296 28.392 31.08C28.392 29.864 28.6053 28.7973 29.032 27.88C29.4587 26.9627 30.0667 26.248 30.856 25.736C31.6453 25.224 32.552 24.968 33.576 24.968C34.6213 24.968 35.528 25.224 36.296 25.736C37.0853 26.248 37.6933 26.9627 38.12 27.88C38.568 28.7973 38.792 29.864 38.792 31.08C38.792 32.296 38.568 33.3627 38.12 34.28C37.6933 35.1973 37.0853 35.912 36.296 36.424C35.528 36.936 34.6213 37.192 33.576 37.192ZM33.576 35.368C34.536 35.368 35.2933 34.9947 35.848 34.248C36.424 33.48 36.712 32.424 36.712 31.08C36.712 29.7573 36.424 28.712 35.848 27.944C35.2933 27.176 34.536 26.792 33.576 26.792C32.616 26.792 31.848 27.176 31.272 27.944C30.7173 28.6907 30.44 29.736 30.44 31.08C30.44 32.424 30.7173 33.48 31.272 34.248C31.848 34.9947 32.616 35.368 33.576 35.368Z" fill="#EF924F"/>
</svg>
