<svg width="52" height="52" viewBox="0 0 52 52" fill="none" xmlns="http://www.w3.org/2000/svg">
<circle cx="26" cy="26" r="26" fill="white"/>
<g clip-path="url(#clip0_2001_287)">
<g opacity="0.935">
<path fill-rule="evenodd" clip-rule="evenodd" d="M24.7012 10.6738C30.1292 10.3666 34.5947 12.2716 38.0977 16.3887C39.5357 18.2753 40.5376 20.3782 41.1035 22.6973C43.3737 22.6786 44.6355 23.8042 44.8887 26.0742C44.6176 28.3994 43.3187 29.525 40.9922 29.4512C39.6785 34.5161 36.6231 38.091 31.8262 40.1758C26.6335 42.0646 21.7351 41.4956 17.1309 38.4688C14.0079 36.2208 12.004 33.215 11.1192 29.4512C9.38525 29.6543 8.11117 28.9863 7.29689 27.4473C6.76657 25.9422 7.05108 24.6187 8.1504 23.4766C8.99823 22.7883 9.96308 22.5286 11.0449 22.6973C12.2033 17.7166 15.0979 14.1418 19.7285 11.9727C21.3313 11.2938 22.9888 10.8608 24.7012 10.6738ZM25.8145 12.0098C28.0991 12.3021 29.1258 13.5885 28.8945 15.8692C28.4915 16.952 27.7122 17.5458 26.5567 17.6504C25.3421 17.5616 24.6742 16.906 24.5527 15.6836C24.692 14.6776 25.261 14.1829 26.2598 14.1992C26.7569 14.4138 26.9177 14.7725 26.7422 15.2754C26.4473 15.5588 26.1257 15.8061 25.7774 16.0176C25.5605 16.6053 25.7584 16.9517 26.3711 17.0567C27.6837 16.6825 28.2775 15.8166 28.1524 14.459C27.7108 13.2173 26.8326 12.6854 25.5176 12.8633C24.0543 13.2538 23.2873 14.2062 23.2168 15.7207C23.3998 17.7469 24.5008 18.8355 26.5195 18.9863C27.9938 18.9547 29.1071 18.3115 29.8594 17.0567C30.3331 16.1119 30.4568 15.1224 30.2305 14.0879C30.0431 13.517 29.8204 12.9727 29.5625 12.4551C33.8551 13.68 36.9723 16.3024 38.9141 20.3223C39.3953 21.4443 39.7416 22.6071 39.9531 23.8106C40.0442 23.9758 40.1803 24.0871 40.3613 24.1445C40.7452 24.1387 41.1287 24.1016 41.5117 24.0332C42.7538 24.1743 43.4341 24.8671 43.5527 26.1113C43.4347 27.355 42.7545 28.0477 41.5117 28.1895C41.1685 28.1562 40.8345 28.082 40.5098 27.9668C40.2971 28.0174 40.1115 28.1164 39.9531 28.2637C38.8559 33.4678 35.85 37.0674 30.9356 39.0625C25.383 40.8418 20.4597 39.778 16.166 35.8711C14.0681 33.692 12.7198 31.1068 12.1211 28.1153C11.9654 28.0003 11.7922 27.9261 11.6016 27.8926C10.5159 28.4534 9.57582 28.2555 8.78126 27.2988C8.17149 26.1409 8.38179 25.1636 9.41212 24.3672C10.1344 23.9399 10.8642 23.9275 11.6016 24.3301C11.8117 24.2961 11.9849 24.1971 12.1211 24.0332C12.952 19.6194 15.2651 16.2424 19.0606 13.9024C21.1756 12.7474 23.427 12.1165 25.8145 12.0098Z" fill="#EF924F"/>
<path d="M22.5488 29.5254C22.887 30.7421 23.6539 31.5709 24.8496 32.0117M24.7012 10.6738C30.1292 10.3666 34.5947 12.2716 38.0977 16.3887C39.5357 18.2753 40.5376 20.3782 41.1035 22.6973C43.3737 22.6786 44.6355 23.8042 44.8887 26.0742C44.6176 28.3994 43.3187 29.525 40.9922 29.4512C39.6785 34.5161 36.6231 38.091 31.8262 40.1758C26.6335 42.0646 21.7351 41.4956 17.1309 38.4688C14.0079 36.2208 12.004 33.215 11.1192 29.4512C9.38525 29.6543 8.11117 28.9863 7.29689 27.4473C6.76657 25.9422 7.05108 24.6187 8.1504 23.4766C8.99823 22.7883 9.96308 22.5286 11.0449 22.6973C12.2033 17.7166 15.0979 14.1418 19.7285 11.9727C21.3313 11.2938 22.9888 10.8608 24.7012 10.6738ZM25.8145 12.0098C28.0991 12.3021 29.1258 13.5885 28.8945 15.8692C28.4915 16.952 27.7122 17.5458 26.5567 17.6504C25.3421 17.5616 24.6742 16.906 24.5527 15.6836C24.692 14.6776 25.261 14.1829 26.2598 14.1992C26.7569 14.4138 26.9177 14.7725 26.7422 15.2754C26.4473 15.5588 26.1257 15.8061 25.7774 16.0176C25.5605 16.6053 25.7584 16.9517 26.3711 17.0567C27.6837 16.6825 28.2775 15.8166 28.1524 14.459C27.7108 13.2173 26.8326 12.6854 25.5176 12.8633C24.0543 13.2538 23.2873 14.2062 23.2168 15.7207C23.3998 17.7469 24.5008 18.8355 26.5195 18.9863C27.9938 18.9547 29.1071 18.3115 29.8594 17.0567C30.3331 16.1119 30.4568 15.1224 30.2305 14.0879C30.0431 13.517 29.8204 12.9727 29.5625 12.4551C33.8551 13.68 36.9723 16.3024 38.9141 20.3223C39.3953 21.4443 39.7416 22.6071 39.9531 23.8106C40.0442 23.9758 40.1803 24.0871 40.3613 24.1445C40.7452 24.1387 41.1287 24.1016 41.5117 24.0332C42.7538 24.1743 43.4341 24.8671 43.5527 26.1113C43.4347 27.355 42.7545 28.0477 41.5117 28.1895C41.1685 28.1562 40.8345 28.082 40.5098 27.9668C40.2971 28.0174 40.1115 28.1164 39.9531 28.2637C38.8559 33.4678 35.85 37.0674 30.9356 39.0625C25.383 40.8418 20.4597 39.778 16.166 35.8711C14.0681 33.692 12.7198 31.1068 12.1211 28.1153C11.9654 28.0003 11.7922 27.9261 11.6016 27.8926C10.5159 28.4534 9.57582 28.2555 8.78126 27.2988C8.17149 26.1409 8.38179 25.1636 9.41212 24.3672C10.1344 23.9399 10.8642 23.9275 11.6016 24.3301C11.8117 24.2961 11.9849 24.1971 12.1211 24.0332C12.952 19.6194 15.2651 16.2424 19.0606 13.9024C21.1756 12.7474 23.427 12.1165 25.8145 12.0098Z" stroke="#EF924F" stroke-width="0.4"/>
</g>
<path opacity="0.924" fill-rule="evenodd" clip-rule="evenodd" d="M19.5801 21.1386C21.4735 21.0703 22.5373 21.9733 22.7715 23.8476C22.6718 24.4667 22.3254 24.6645 21.7324 24.4414C21.6175 24.3513 21.5309 24.2399 21.4727 24.1074C21.3829 22.9028 20.752 22.3956 19.5801 22.5859C18.9773 22.9366 18.6682 23.4685 18.6523 24.1816C18.2851 24.6458 17.8892 24.6705 17.4648 24.2558C17.2547 23.1799 17.5887 22.3017 18.4668 21.621C18.828 21.4152 19.1991 21.2543 19.5801 21.1386Z" fill="#EF924F" stroke="#EF924F" stroke-width="0.4"/>
<path opacity="0.925" fill-rule="evenodd" clip-rule="evenodd" d="M31.1582 21.1386C32.7626 21.043 33.7893 21.7604 34.2383 23.2909C34.2878 23.6125 34.2878 23.9342 34.2383 24.2557C33.8173 24.6715 33.4215 24.6467 33.0508 24.1815C33.0506 23.2128 32.5805 22.6439 31.6406 22.4745C30.7223 22.6261 30.2523 23.1704 30.2305 24.1073C29.9153 24.5908 29.5195 24.6651 29.043 24.33C28.7484 22.9376 29.2555 21.9357 30.5645 21.3241C30.773 21.2661 30.9709 21.2042 31.1582 21.1386Z" fill="#EF924F" stroke="#EF924F" stroke-width="0.4"/>
<path opacity="0.945" fill-rule="evenodd" clip-rule="evenodd" d="M21.6582 28.1152C24.5034 28.1029 27.3484 28.1152 30.1934 28.1524C30.3789 28.239 30.5149 28.375 30.6016 28.5606C30.5797 31.0162 29.4046 32.6367 27.0762 33.4219C24.5573 33.8756 22.7141 32.9726 21.5469 30.7129C21.2455 29.998 21.1465 29.2558 21.25 28.4863C21.3503 28.3194 21.4864 28.1957 21.6582 28.1152ZM22.5488 29.5254C22.887 30.7421 23.6539 31.5709 24.8496 32.0117C27.0514 32.4569 28.511 31.6158 29.2285 29.4883C26.9894 29.4266 24.7628 29.439 22.5488 29.5254Z" fill="#EF924F" stroke="#EF924F" stroke-width="0.4"/>
</g>
<defs>
<clipPath id="clip0_2001_287">
<rect width="38" height="38" fill="white" transform="translate(7 7)"/>
</clipPath>
</defs>
</svg>
