<svg width="52" height="52" viewBox="0 0 52 52" fill="none" xmlns="http://www.w3.org/2000/svg">
<circle cx="26" cy="26" r="26" fill="white"/>
<path opacity="0.949" fill-rule="evenodd" clip-rule="evenodd" d="M30.5108 15.0071C32.0305 14.9881 33.5499 15.0071 35.0687 15.0641C37.0406 15.143 38.8068 15.7697 40.3673 16.9443C40.5192 17.1722 40.6712 17.4001 40.8231 17.628C41.0114 23.0528 41.0493 28.4844 40.9371 33.9226C40.6883 34.5537 40.2895 35.0664 39.7406 35.4609C37.56 36.5716 35.2431 37.0464 32.7898 36.8853C30.7949 36.9826 28.8577 36.6977 26.9784 36.0307C26.4474 35.8033 25.9535 35.5185 25.497 35.1761C23.9845 36.1815 22.3132 36.7323 20.4833 36.8283C18.4231 36.9534 16.372 36.8775 14.3301 36.6004C13.0362 36.3721 11.8588 35.8783 10.7977 35.1191C10.4568 34.7784 10.21 34.3796 10.057 33.9226C9.981 31.036 9.981 28.1492 10.057 25.2625C10.2507 24.5902 10.6495 24.0775 11.2535 23.7242C12.7098 22.9327 14.2671 22.4769 15.9254 22.3568C17.7522 22.2581 19.5754 22.2962 21.3949 22.4708C22.5008 22.6093 23.5453 22.9322 24.5285 23.4393C24.5664 21.6162 24.6045 19.793 24.6424 17.9698C24.8361 17.2975 25.235 16.7847 25.8389 16.4315C27.3175 15.6541 28.8748 15.1794 30.5108 15.0071ZM32.5619 16.8303C34.0203 16.8703 35.4637 17.0412 36.8919 17.3431C37.6999 17.5097 38.4026 17.8704 39 18.4256C39.076 18.5775 39.076 18.7295 39 18.8814C38.7084 19.2268 38.3475 19.4737 37.9175 19.6221C34.8648 20.5408 31.7882 20.6548 28.6876 19.9639C27.8796 19.7973 27.1769 19.4366 26.5796 18.8814C26.4946 18.5066 26.6274 18.2217 26.9784 18.0268C27.6663 17.6709 28.3879 17.405 29.1434 17.2291C30.2937 17.0407 31.4332 16.9078 32.5619 16.8303ZM26.4086 21.1604C27.7055 21.7695 29.0729 22.1303 30.5108 22.2429C32.3376 22.3416 34.1608 22.3035 35.9803 22.1289C37.0862 21.9904 38.1308 21.6676 39.1139 21.1604C39.3816 22.2392 38.9828 22.942 37.9175 23.2684C34.499 24.4079 31.0805 24.4079 27.6621 23.2684C26.6155 22.9415 26.1976 22.2389 26.4086 21.1604ZM17.9764 24.123C19.4349 24.163 20.8783 24.334 22.3065 24.6358C23.1145 24.8024 23.8172 25.1632 24.4145 25.7183C24.4905 25.8702 24.4905 26.0222 24.4145 26.1741C24.1229 26.5195 23.7621 26.7664 23.332 26.9148C20.2793 27.8335 17.2027 27.9475 14.1022 27.2566C13.2942 27.09 12.5914 26.7293 11.9941 26.1741C11.9091 25.7993 12.042 25.5145 12.393 25.3195C13.0809 24.9636 13.8025 24.6977 14.558 24.5219C15.7083 24.3334 16.8478 24.2005 17.9764 24.123ZM26.4086 24.8067C27.7055 25.4159 29.0729 25.7767 30.5108 25.8892C32.3376 25.9879 34.1608 25.9499 35.9803 25.7753C37.0862 25.6367 38.1308 25.3139 39.1139 24.8067C39.3816 25.8856 38.9828 26.5883 37.9175 26.9148C34.499 28.0543 31.0805 28.0543 27.6621 26.9148C26.6155 26.5879 26.1976 25.8852 26.4086 24.8067ZM11.8232 28.4531C13.1201 29.0623 14.4874 29.423 15.9254 29.5356C17.7522 29.6343 19.5754 29.5962 21.3949 29.4216C22.5008 29.2831 23.5453 28.9603 24.5285 28.4531C24.7962 29.5319 24.3973 30.2347 23.332 30.5611C19.9136 31.7006 16.4951 31.7006 13.0766 30.5611C12.03 30.2342 11.6122 29.5316 11.8232 28.4531ZM26.4086 28.4531C27.7055 29.0623 29.0729 29.423 30.5108 29.5356C32.3376 29.6343 34.1608 29.5962 35.9803 29.4216C37.0862 29.2831 38.1308 28.9603 39.1139 28.4531C39.3816 29.5319 38.9828 30.2347 37.9175 30.5611C34.499 31.7006 31.0805 31.7006 27.6621 30.5611C26.6155 30.2342 26.1976 29.5316 26.4086 28.4531ZM11.8232 32.0994C13.1201 32.7086 14.4874 33.0694 15.9254 33.182C17.7522 33.2806 19.5754 33.2426 21.3949 33.068C22.5008 32.9294 23.5453 32.6066 24.5285 32.0994C24.7962 33.1783 24.3973 33.881 23.332 34.2075C19.9136 35.347 16.4951 35.347 13.0766 34.2075C12.03 33.8806 11.6122 33.178 11.8232 32.0994ZM26.4086 32.0994C27.7055 32.7086 29.0729 33.0694 30.5108 33.182C32.3376 33.2806 34.1608 33.2426 35.9803 33.068C37.0862 32.9294 38.1308 32.6066 39.1139 32.0994C39.3816 33.1783 38.9828 33.881 37.9175 34.2075C34.499 35.347 31.0805 35.347 27.6621 34.2075C26.6155 33.8806 26.1976 33.178 26.4086 32.0994Z" fill="#EF924F"/>
</svg>
