<svg width="24" height="24" viewBox="0 0 24 24" fill="none" xmlns="http://www.w3.org/2000/svg">
<g clip-path="url(#clip0_266_170)">
<path opacity="0.945" fill-rule="evenodd" clip-rule="evenodd" d="M4.28943 -0.0234375C4.6488 -0.0234375 5.00816 -0.0234375 5.36755 -0.0234375C6.79958 0.338345 7.66677 1.2446 7.96911 2.69531C7.99255 3.57017 8.00038 4.44518 7.99255 5.32031C10.9457 5.32031 13.8988 5.32031 16.8519 5.32031C16.8717 4.41215 16.8483 3.5059 16.7816 2.60156C16.4474 1.54875 15.7287 0.986245 14.6254 0.914062C13.1959 1.09371 12.4459 1.9062 12.3754 3.35156C12.1292 3.67852 11.848 3.70978 11.5316 3.44531C11.3742 2.11174 11.8663 1.0883 13.0082 0.375C13.3541 0.18956 13.7135 0.0567478 14.0863 -0.0234375C14.4457 -0.0234375 14.805 -0.0234375 15.1644 -0.0234375C16.5648 0.290935 17.432 1.15031 17.766 2.55469C17.8356 7.83483 17.859 13.1161 17.8363 18.3984C19.1683 18.3899 20.4496 18.132 21.68 17.625C22.2497 17.3636 22.8122 17.0902 23.3675 16.8047C23.6322 16.8185 23.8353 16.9279 23.9769 17.1328C23.9769 17.2266 23.9769 17.3203 23.9769 17.4141C23.9168 17.5251 23.8386 17.6266 23.7425 17.7188C20.672 19.4936 17.4376 19.853 14.0394 18.7969C12.3161 18.241 10.5661 17.7879 8.78943 17.4375C6.26441 17.0453 3.92068 17.5297 1.75818 18.8906C1.4613 19.0937 1.16443 19.2969 0.867552 19.5C0.584493 19.6785 0.326682 19.6551 0.0941149 19.4297C-0.00844872 19.1924 0.0228013 18.9736 0.187865 18.7734C1.76976 17.5726 3.5432 16.7992 5.50818 16.4531C6.02197 16.3872 6.5376 16.3482 7.05505 16.3359C7.06288 11.914 7.05505 7.49217 7.03161 3.07031C6.8661 1.75635 6.12388 1.0376 4.80505 0.914062C3.79407 0.985083 3.09876 1.48508 2.71911 2.41406C2.63961 2.73904 2.57711 3.06717 2.53161 3.39844C2.29529 3.6675 2.02967 3.69875 1.73474 3.49219C1.56007 2.14588 2.05226 1.10682 3.2113 0.375C3.55724 0.18956 3.91662 0.0567478 4.28943 -0.0234375ZM7.99255 6.25781C10.9457 6.25781 13.8988 6.25781 16.8519 6.25781C16.8519 7.91405 16.8519 9.57033 16.8519 11.2266C13.8988 11.2266 10.9457 11.2266 7.99255 11.2266C7.99255 9.57033 7.99255 7.91405 7.99255 6.25781ZM7.99255 12.2109C10.9613 12.2109 13.9301 12.2109 16.8988 12.2109C16.8988 14.2578 16.8988 16.3047 16.8988 18.3516C16.2203 18.2749 15.5484 18.1577 14.8832 18C13.3779 17.5417 11.8623 17.1198 10.3363 16.7344C9.56404 16.5457 8.78277 16.413 7.99255 16.3359C7.99255 14.961 7.99255 13.5859 7.99255 12.2109Z" fill="black"/>
<path opacity="0.946" fill-rule="evenodd" clip-rule="evenodd" d="M0.632812 23.9766C0.507811 23.9766 0.382813 23.9766 0.257812 23.9766C0.140747 23.8667 0.0469969 23.7417 -0.0234375 23.6016C-0.0234375 23.5234 -0.0234375 23.4453 -0.0234375 23.3672C0.0254032 23.2622 0.0879033 23.1607 0.164062 23.0625C1.6545 21.9581 3.31074 21.2081 5.13281 20.8125C6.70373 20.5641 8.26622 20.611 9.82031 20.9531C11.6503 21.4458 13.4784 21.9458 15.3047 22.4531C17.4989 22.9928 19.6395 22.8365 21.7266 21.9844C22.2735 21.711 22.8203 21.4375 23.3672 21.1641C23.7567 21.2173 23.9208 21.436 23.8594 21.8203C23.818 21.9423 23.7477 22.0439 23.6484 22.125C21.2354 23.567 18.6416 24.0513 15.8672 23.5781C15.1106 23.4359 14.3606 23.264 13.6172 23.0625C11.9423 22.5149 10.2391 22.0774 8.50781 21.75C6.25819 21.4281 4.14882 21.8343 2.17969 22.9688C1.65585 23.2983 1.14022 23.6342 0.632812 23.9766Z" fill="black"/>
</g>
<defs>
<clipPath id="clip0_266_170">
<rect width="24" height="24" fill="white"/>
</clipPath>
</defs>
</svg>
