<svg width="29" height="23" viewBox="0 0 29 23" fill="none" xmlns="http://www.w3.org/2000/svg">
<g clip-path="url(#clip0_266_151)">
<path opacity="0.896" fill-rule="evenodd" clip-rule="evenodd" d="M17.4918 1.19039C18.0813 1.1755 18.3153 1.40011 18.1937 1.86422C17.9814 2.12879 17.6913 2.19617 17.3233 2.06637C17.1122 1.89821 17.0467 1.69606 17.1268 1.45992C17.2074 1.32777 17.3291 1.23792 17.4918 1.19039Z" fill="black"/>
<path opacity="0.941" fill-rule="evenodd" clip-rule="evenodd" d="M-0.0273438 13.8584C-0.0273438 13.7236 -0.0273438 13.5888 -0.0273438 13.4541C0.0594689 13.3328 0.190491 13.2504 0.365723 13.207C4.11179 12.5161 6.61991 10.7193 7.89014 7.81637C7.20227 8.10629 6.49104 8.37583 5.75635 8.62496C4.00612 9.18051 2.19053 9.43508 0.30957 9.38863C0.16792 9.32754 0.0556153 9.2452 -0.0273438 9.14156C-0.0273438 9.0068 -0.0273438 8.87203 -0.0273438 8.73727C0.0594689 8.61598 0.190491 8.53364 0.365723 8.4902C3.42572 8.48292 6.14913 7.72671 8.53589 6.22164C9.51726 4.19368 11.2486 2.73372 13.73 1.84176C14.1484 1.69522 14.5789 1.57543 15.0215 1.48239C15.443 1.44509 15.6863 1.59482 15.7515 1.9316C15.7426 2.06553 15.6865 2.18532 15.583 2.29098C12.8363 2.94643 10.8804 4.31655 9.71509 6.40133C9.36953 7.19276 9.03261 7.9864 8.70435 8.78219C7.13393 11.6933 4.41054 13.4751 0.53418 14.1279C0.274591 14.1291 0.0874165 14.0392 -0.0273438 13.8584Z" fill="black"/>
<path opacity="0.944" fill-rule="evenodd" clip-rule="evenodd" d="M28.7217 10.0401C28.7217 10.1748 28.7217 10.3096 28.7217 10.4444C28.6388 10.548 28.5265 10.6303 28.3848 10.6914C27.1993 10.7841 26.1324 11.1136 25.1841 11.6797C22.6625 13.763 19.7426 14.2122 16.4244 13.0274C13.9203 11.8731 12.8815 10.1436 13.3079 7.83888C13.5704 6.84207 14.16 5.99605 15.0767 5.3008C16.4336 4.49952 17.8561 4.40966 19.3443 5.03127C20.3532 5.69121 20.6621 6.52227 20.2708 7.52443C20.1186 7.79553 19.9221 8.0426 19.6812 8.26564C19.3889 8.44995 19.0707 8.59972 18.7266 8.71486C20.0003 8.99414 21.0391 8.7171 21.8431 7.8838C22.7988 6.80721 22.9672 5.65424 22.3484 4.42482C21.9659 3.81997 21.4324 3.31834 20.7481 2.91994C20.3877 2.74207 20.0227 2.56987 19.6531 2.40334C19.4132 1.87602 19.6472 1.62895 20.355 1.66212C23.3088 2.84713 24.3851 4.72638 23.5838 7.29982C22.5957 9.32337 20.7894 10.0796 18.1651 9.56837C17.2258 9.24768 16.6269 8.69366 16.3682 7.90627C16.4532 7.52411 16.7339 7.37439 17.2105 7.45705C17.8503 7.92464 18.4586 7.90218 19.0355 7.38966C19.475 6.61764 19.2223 6.04111 18.2774 5.66017C16.7991 5.41566 15.7042 5.82742 14.9925 6.89552C14.1909 8.19152 14.2097 9.47925 15.0486 10.7588C16.3555 12.191 18.1243 12.8423 20.355 12.7129C21.538 12.5989 22.5862 12.2396 23.4996 11.6348C24.748 10.5364 26.3015 9.91504 28.1602 9.77052C28.4051 9.79321 28.5923 9.88305 28.7217 10.0401Z" fill="black"/>
<path opacity="0.939" fill-rule="evenodd" clip-rule="evenodd" d="M9.85544 11.4775C10.1935 11.42 10.4649 11.4949 10.6696 11.7021C10.7528 13.4017 11.8103 14.4873 13.8423 14.9589C14.2252 14.9849 14.5995 15.0373 14.9653 15.1161C15.2761 15.3929 15.2574 15.6549 14.9092 15.9023C12.5347 15.9816 10.8596 15.1506 9.88352 13.4091C9.60753 12.8591 9.51392 12.2902 9.60275 11.7021C9.67946 11.6184 9.76369 11.5436 9.85544 11.4775Z" fill="black"/>
<path opacity="0.938" fill-rule="evenodd" clip-rule="evenodd" d="M28.7217 13.2744C28.7217 13.3493 28.7217 13.4241 28.7217 13.499C28.6549 13.5823 28.5801 13.6647 28.4971 13.7461C27.7549 14.1749 27.0623 14.654 26.4195 15.1836C24.4931 16.3911 22.3031 16.9601 19.8497 16.8906C19.4923 16.6956 19.4268 16.4486 19.6531 16.1494C19.7038 16.0954 19.7693 16.058 19.8497 16.0371C21.8942 16.0159 23.7473 15.5367 25.4088 14.5996C26.0058 14.197 26.586 13.7777 27.1495 13.3418C27.3928 13.207 27.6361 13.0722 27.8795 12.9375C28.2978 12.848 28.5786 12.9603 28.7217 13.2744Z" fill="black"/>
<path opacity="0.942" fill-rule="evenodd" clip-rule="evenodd" d="M28.7227 19.9228C28.7227 20.0725 28.7227 20.2223 28.7227 20.372C27.2628 21.5522 25.5034 21.9789 23.4443 21.6523C22.2679 21.414 21.276 20.9348 20.4683 20.2148C18.6901 19.2265 16.912 19.2265 15.1338 20.2148C13.2891 21.7499 11.1179 22.1392 8.62012 21.3828C7.87486 21.092 7.21979 20.7026 6.65479 20.2148C5.11561 19.3381 3.50591 19.2483 1.82568 19.9453C1.51418 20.0926 1.23342 20.2722 0.983398 20.4843C0.605538 20.6934 0.268622 20.6559 -0.0273438 20.372C-0.0273438 20.2223 -0.0273438 20.0725 -0.0273438 19.9228C1.78966 18.5255 3.88601 18.1886 6.26172 18.9121C6.58914 19.0505 6.90736 19.2002 7.21631 19.3613C7.68423 19.6757 8.1522 19.9902 8.62012 20.3046C10.7818 21.1794 12.6909 20.9099 14.3477 19.496C16.1171 18.4618 18.0263 18.2672 20.0752 18.9121C20.4026 19.0505 20.7208 19.2002 21.0298 19.3613C21.4977 19.6757 21.9657 19.9902 22.4336 20.3046C24.425 21.1396 26.2407 20.945 27.8804 19.7207C28.2262 19.6422 28.5069 19.7096 28.7227 19.9228Z" fill="black"/>
</g>
<defs>
<clipPath id="clip0_266_151">
<rect width="28.75" height="23" fill="white"/>
</clipPath>
</defs>
</svg>
