<svg width="20" height="16" viewBox="0 0 20 16" fill="none" xmlns="http://www.w3.org/2000/svg">
<path d="M19.1663 3.61607C19.0948 3.6114 19.0232 3.5974 18.9564 3.5974C14.8347 3.5974 10.7177 3.5974 6.59587 3.59274C6.43367 3.59274 6.36688 3.63007 6.32872 3.79809C6.03771 5.06287 4.92617 5.93561 3.61426 5.93094C2.30712 5.93094 1.19557 5.04887 0.899798 3.78875C0.551546 2.28595 1.62493 0.750483 3.18491 0.53113C4.68287 0.321111 5.99955 1.20786 6.33826 2.66399C6.36688 2.79 6.40982 2.832 6.54339 2.832C10.6986 2.82733 14.8537 2.82733 19.0089 2.82733C19.0614 2.82733 19.1139 2.818 19.1663 2.80867C19.1663 3.07936 19.1663 3.34538 19.1663 3.61607ZM3.6238 5.15621C4.72103 5.15154 5.60836 4.2788 5.60359 3.20537C5.60359 2.12261 4.70672 1.26386 3.5904 1.26853C2.50748 1.2732 1.62493 2.15061 1.6297 3.21937C1.63447 4.2928 2.52657 5.16088 3.6238 5.15621Z" fill="white"/>
<path d="M19.1669 13.169C18.6946 13.169 18.2271 13.1644 17.7548 13.1644C16.2091 13.1644 14.6683 13.1644 13.1226 13.1644C13.051 13.1644 12.9795 13.1644 12.8984 13.1644C12.7552 13.9578 12.3641 14.5925 11.6866 15.0405C11.1905 15.3719 10.6323 15.5166 10.0312 15.4979C8.80998 15.4559 7.64119 14.6018 7.38357 13.169C5.21296 13.169 3.04235 13.169 0.857422 13.169C0.857422 12.9077 0.857422 12.665 0.857422 12.4036C3.02804 12.4036 5.19865 12.4036 7.36926 12.4036C7.43128 12.1983 7.47422 12.0022 7.54577 11.8202C7.97513 10.7001 9.12961 9.97207 10.3175 10.0654C11.5865 10.1634 12.6169 11.0362 12.8602 12.2356C12.8888 12.3709 12.9365 12.3989 13.0653 12.3989C15.026 12.3943 16.9868 12.3943 18.9475 12.3989C19.019 12.3989 19.0906 12.4036 19.1621 12.4036C19.1669 12.6556 19.1669 12.9123 19.1669 13.169ZM10.1457 14.7278C11.2525 14.7185 12.1303 13.8504 12.1255 12.777C12.1208 11.6989 11.2287 10.8261 10.1362 10.8355C9.03419 10.8401 8.1421 11.7316 8.15164 12.8097C8.16118 13.8597 9.06759 14.7372 10.1457 14.7278Z" fill="white"/>
</svg>
