<svg width="36" height="36" viewBox="0 0 36 36" fill="none" xmlns="http://www.w3.org/2000/svg">
<path opacity="0.965" fill-rule="evenodd" clip-rule="evenodd" d="M10.5117 6.92578C12.9493 6.91406 15.3868 6.92578 17.8242 6.96094C19.2585 8.34849 20.6882 9.73132 22.1133 11.1094C21.2252 12.0208 20.3112 12.9114 19.3711 13.7813C20.5898 13.8047 21.8086 13.8281 23.0273 13.8516C24.4688 15.1992 25.9102 16.5469 27.3516 17.8945C27.3985 17.9414 27.3985 17.9883 27.3516 18.0352C26.4492 18.8906 25.5469 19.7461 24.6445 20.6016C26.0039 20.625 27.3633 20.6485 28.7227 20.6719C30.2016 22.0338 31.6548 23.4166 33.082 24.8203C31.6763 26.273 30.2231 27.6792 28.7227 29.0391C22.6524 29.0742 16.5821 29.086 10.5117 29.0742C10.5117 21.6914 10.5117 14.3086 10.5117 6.92578ZM11.918 8.40234C13.6525 8.3906 15.3869 8.40234 17.1211 8.4375C18.0586 9.32815 18.9961 10.2187 19.9336 11.1094C19.0172 12.0024 18.0797 12.8696 17.1211 13.7109C15.3869 13.7461 13.6525 13.7578 11.918 13.7461C11.918 11.9649 11.918 10.1836 11.918 8.40234ZM11.918 15.293C15.3868 15.2812 18.8556 15.293 22.3242 15.3281C23.2954 16.1703 24.2329 17.0492 25.1367 17.9648C24.2329 18.8805 23.2954 19.7594 22.3242 20.6016C18.8556 20.6367 15.3868 20.6485 11.918 20.6367C11.918 18.8555 11.918 17.0742 11.918 15.293ZM11.918 22.1133C17.3086 22.1015 22.6993 22.1133 28.0898 22.1484C29.0273 23.0391 29.9649 23.9297 30.9023 24.8203C29.9649 25.711 29.0273 26.6015 28.0898 27.4922C22.6993 27.5273 17.3086 27.5391 11.918 27.5273C11.918 25.7226 11.918 23.918 11.918 22.1133Z" fill="#3D3D3D" stroke="white" stroke-width="0.4"/>
<path opacity="0.934" fill-rule="evenodd" clip-rule="evenodd" d="M4.74609 7.55853C5.25618 7.53653 5.76009 7.55994 6.25781 7.62885C6.93786 9.51667 7.58243 11.4151 8.19141 13.3242C7.7689 13.3358 7.34702 13.3241 6.92578 13.289C6.79926 12.886 6.65864 12.4876 6.50391 12.0937C5.80118 12.0585 5.09805 12.0469 4.39453 12.0585C4.29192 12.4602 4.17473 12.8587 4.04297 13.2538C3.62303 13.3357 3.20116 13.3474 2.77734 13.289C3.45483 11.3854 4.11108 9.47525 4.74609 7.55853ZM5.44922 8.75385C5.72383 9.48432 5.9582 10.2343 6.15234 11.0038C5.68301 11.0155 5.21426 11.0038 4.74609 10.9687C5.00153 10.2375 5.23591 9.49923 5.44922 8.75385Z" fill="#3D3D3D" stroke="white" stroke-width="0.4"/>
<path opacity="0.938" fill-rule="evenodd" clip-rule="evenodd" d="M3.62109 15.082C4.39488 15.0703 5.16832 15.082 5.94141 15.1172C7.34168 15.3746 7.75188 16.1597 7.17188 17.4727C7.08652 17.5816 6.98105 17.6636 6.85547 17.7188C7.68558 18.1018 8.00198 18.7462 7.80469 19.6524C7.7066 20.1957 7.3902 20.5356 6.85547 20.6719C6.69456 20.7297 6.5305 20.7766 6.36328 20.8125C5.44952 20.8477 4.53546 20.8594 3.62109 20.8477C3.62109 18.9258 3.62109 17.0039 3.62109 15.082ZM4.95703 16.0664C5.30238 16.0357 5.63051 16.0943 5.94141 16.2422C6.23741 16.5952 6.21398 16.9234 5.87109 17.2266C5.57581 17.3227 5.27112 17.3578 4.95703 17.332C4.95703 16.9102 4.95703 16.4883 4.95703 16.0664ZM4.95703 18.3867C5.30937 18.3751 5.66094 18.3868 6.01172 18.4219C6.37346 18.5325 6.53752 18.7786 6.50391 19.1602C6.532 19.6125 6.32107 19.8586 5.87109 19.8984C5.5673 19.9335 5.26262 19.9453 4.95703 19.9336C4.95703 19.418 4.95703 18.9023 4.95703 18.3867Z" fill="#3D3D3D" stroke="white" stroke-width="0.4"/>
<path opacity="0.927" fill-rule="evenodd" clip-rule="evenodd" d="M5.94207 22.6055C6.58142 22.5519 7.19082 22.6573 7.77019 22.9219C7.66149 23.2044 7.59118 23.4974 7.55925 23.8008C6.82775 23.5583 6.12463 23.617 5.44988 23.9765C5.07504 24.4215 4.91098 24.9372 4.95769 25.5234C4.89116 26.2148 5.10209 26.8007 5.5905 27.2812C6.25432 27.5592 6.934 27.5943 7.62957 27.3867C7.64257 27.65 7.68947 27.9078 7.77019 28.1601C7.74678 28.207 7.72329 28.2539 7.69988 28.3008C7.49787 28.3904 7.28693 28.449 7.06707 28.4765C4.83665 28.8467 3.68821 27.9093 3.62175 25.664C3.56195 24.6236 3.91352 23.7564 4.67644 23.0625C5.07636 22.8228 5.49823 22.6704 5.94207 22.6055Z" fill="#3D3D3D" stroke="white" stroke-width="0.4"/>
</svg>
