<svg width="28" height="28" viewBox="0 0 28 28" fill="none" xmlns="http://www.w3.org/2000/svg">
<path d="M22.8113 3.49653C22.5174 3.5102 22.2405 3.59565 21.9944 3.69136H21.991C21.7415 3.79048 20.5555 4.2895 18.7542 5.04487C16.9529 5.80366 14.615 6.78804 12.2942 7.76557C7.65947 9.71723 3.10332 11.6381 3.10332 11.6381L3.158 11.6176C3.158 11.6176 2.84355 11.7202 2.51543 11.9458C2.34795 12.0551 2.16337 12.2055 2.00273 12.4414C1.84209 12.6772 1.7122 13.0395 1.76005 13.4121C1.83867 14.0444 2.24882 14.4238 2.54277 14.6323C2.84013 14.8442 3.12382 14.9433 3.12382 14.9433H3.13066L7.40312 16.3823C7.59453 16.9975 8.70537 20.6479 8.97197 21.4887C9.1292 21.9912 9.283 22.3056 9.47441 22.5449C9.5667 22.6679 9.67607 22.7705 9.80595 22.8525C9.85722 22.8832 9.91191 22.9072 9.9666 22.9277C9.98369 22.9379 10.0008 22.9414 10.0213 22.9448L9.97685 22.9345C9.99052 22.9379 10.0008 22.9482 10.011 22.9516C10.0452 22.9619 10.0691 22.9653 10.1136 22.9721C10.7903 23.1772 11.3338 22.7568 11.3338 22.7568L11.3645 22.7329L13.887 20.436L18.115 23.6796L18.2107 23.7207C19.0926 24.1069 19.9847 23.8916 20.4563 23.5122C20.9314 23.1293 21.116 22.6406 21.116 22.6406L21.1468 22.562L24.4144 5.82417C24.5066 5.41059 24.5306 5.02436 24.428 4.64839C24.3255 4.27241 24.0623 3.92036 23.7444 3.73237C23.4231 3.54097 23.1053 3.48286 22.8113 3.49653ZM22.7225 5.29097C22.719 5.34565 22.7293 5.33882 22.7054 5.44477V5.45503L19.4686 22.0185C19.4549 22.0424 19.431 22.0937 19.366 22.145C19.2977 22.1997 19.243 22.2338 18.9593 22.121L13.7879 18.1562L10.6639 21.0034L11.3201 16.8129C11.3201 16.8129 19.4207 9.26264 19.7693 8.93794C20.118 8.61323 20.0018 8.54487 20.0018 8.54487C20.0257 8.14839 19.4754 8.42866 19.4754 8.42866L8.82158 15.0288L8.81816 15.0117L3.71172 13.2924V13.289C3.7083 13.289 3.70146 13.2856 3.69804 13.2856C3.70146 13.2856 3.72539 13.2753 3.72539 13.2753L3.75273 13.2617L3.78007 13.2514C3.78007 13.2514 8.33964 11.3305 12.9744 9.37886C15.2952 8.40132 17.6331 7.41694 19.431 6.65815C21.2288 5.90278 22.5584 5.34907 22.6336 5.31831C22.7054 5.29097 22.6712 5.29097 22.7225 5.29097Z" fill="#3D3D3D"/>
</svg>
