<svg width="63" height="63" viewBox="0 0 63 63" fill="none" xmlns="http://www.w3.org/2000/svg">
<circle cx="31.5" cy="31.5" r="31.5" fill="white"/>
<path opacity="0.947" fill-rule="evenodd" clip-rule="evenodd" d="M29.4785 16.7129C35.6872 16.3716 40.3754 18.8456 43.543 24.1348C45.3791 27.7289 45.7254 31.4646 44.582 35.3418C42.9863 39.9063 39.9063 42.9864 35.3418 44.5821C30.3858 45.9905 25.8832 45.1246 21.834 41.9844C17.6426 38.2353 16.0222 33.5719 16.9727 27.9942C18.2518 22.7072 21.4556 19.1571 26.584 17.3438C27.5454 17.07 28.5103 16.8597 29.4785 16.7129ZM29.8496 18.3457C34.58 18.1324 38.3774 19.8889 41.2422 23.6153C43.7374 27.3437 44.2322 31.3268 42.7266 35.5645C40.6896 40.2276 37.1395 42.887 32.0762 43.543C27.3441 43.7927 23.5467 42.0485 20.6836 38.3106C18.1884 34.5821 17.6936 30.599 19.1992 26.3614C21.2528 21.7038 24.8029 19.0319 29.8496 18.3457Z" fill="#EF924F"/>
<path opacity="0.901" fill-rule="evenodd" clip-rule="evenodd" d="M30.1465 24.5801C30.6907 24.5801 31.2351 24.5801 31.7793 24.5801C31.7793 25.1491 31.7793 25.7181 31.7793 26.2871C31.2351 26.2871 30.6907 26.2871 30.1465 26.2871C30.1465 25.7181 30.1465 25.1491 30.1465 24.5801Z" fill="#EF924F"/>
<path opacity="0.963" fill-rule="evenodd" clip-rule="evenodd" d="M30.1465 27.7715C30.6907 27.7715 31.2351 27.7715 31.7793 27.7715C31.7793 30.9629 31.7793 34.1543 31.7793 37.3457C31.2351 37.3457 30.6907 37.3457 30.1465 37.3457C30.1465 34.1543 30.1465 30.9629 30.1465 27.7715Z" fill="#EF924F"/>
</svg>
